<?xml version="1.0" encoding="iso-8859-1"?>
<!-- Generator: Adobe Illustrator 19.0.0, SVG Export Plug-In . SVG Version: 6.00 Build 0)  -->
<svg version="1.1" id="Capa_1" xmlns="http://www.w3.org/2000/svg" xmlns:xlink="http://www.w3.org/1999/xlink" x="0px" y="0px"
	 viewBox="0 0 512 512" style="enable-background:new 0 0 512 512;" xml:space="preserve">
<g>
	<g>
		<g>
			<path d="M256,0C114.844,0,0,114.833,0,256s114.844,256,256,256s256-114.833,256-256S397.156,0,256,0z M256,490.667
				C126.604,490.667,21.333,385.396,21.333,256S126.604,21.333,256,21.333S490.667,126.604,490.667,256S385.396,490.667,256,490.667
				z"/>
			<path d="M117.344,192c1.604,0,3.229-0.354,4.76-1.125l85.333-42.667c5.271-2.646,7.406-9.042,4.771-14.313
				c-2.635-5.271-9.063-7.438-14.313-4.771l-85.333,42.667c-5.271,2.646-7.406,9.042-4.771,14.313
				C109.667,189.833,113.427,192,117.344,192z"/>
			<path d="M304.563,148.208l85.333,42.667c1.531,0.771,3.156,1.125,4.76,1.125c3.917,0,7.677-2.167,9.552-5.896
				c2.635-5.271,0.5-11.667-4.771-14.313l-85.333-42.667c-5.271-2.667-11.677-0.5-14.313,4.771
				C297.156,139.167,299.292,145.563,304.563,148.208z"/>
			<path d="M256,277.333c-70.563,0-133.25,48.313-149.042,114.875c-0.76,3.167-0.021,6.521,2.01,9.063
				c2.021,2.563,5.104,4.063,8.365,4.063h60.585C190.617,431.641,219.366,448,256,448c36.645,0,65.389-16.367,78.082-42.667h60.585
				c3.26,0,6.344-1.5,8.365-4.042c2.021-2.563,2.771-5.896,2.021-9.083C389.323,325.646,326.646,277.333,256,277.333z
				 M318.969,384.5c-6.042,31.083-36.49,42.167-62.969,42.167c-26.458,0-56.885-11.063-62.958-42.104
				c-0.802-4.104,0.604-8.333,3.573-10.75c9.302-7.604,18-11.146,27.385-11.146c7.336,0,14.435,2.029,21.333,5.159V384
				c0,5.896,4.771,10.667,10.667,10.667s10.667-4.771,10.667-10.667v-16.618c15.73-7.319,32.505-7.031,48.76,6.389h0.01
				C318.375,376.208,319.76,380.417,318.969,384.5z M340.185,384c0.564-10.279-3.327-20.214-11.206-26.688
				c-22.958-18.917-49.375-20-72.979-8.521c-23.458-11.396-49.635-10.521-72.896,8.5c-7.902,6.482-11.827,16.415-11.28,26.708
				h-40.158c18.177-49.479,69.281-85.333,124.333-85.333c56.083,0,106.302,35.167,124.385,85.333H340.185z"/>
		</g>
	</g>
</g>
<g>
</g>
<g>
</g>
<g>
</g>
<g>
</g>
<g>
</g>
<g>
</g>
<g>
</g>
<g>
</g>
<g>
</g>
<g>
</g>
<g>
</g>
<g>
</g>
<g>
</g>
<g>
</g>
<g>
</g>
</svg>
