<svg height="512" viewBox="0 0 60 60" width="512" xmlns="http://www.w3.org/2000/svg"><g id="Page-1" fill="none" fill-rule="evenodd"><g id="015---Anxiety" fill="rgb(0,0,0)" fill-rule="nonzero" transform="translate(-1 -1)"><path id="Shape" d="m18 27.276c.1971916-.000153.3899366-.0586028.554-.168 1.6338508-1.055895 3.506158-1.6857273 5.446-1.832.5522847 0 1-.4477153 1-1s-.4477153-1-1-1c-2.3350177.147271-4.5926498.89396-6.555 2.168-.3666557.2444851-.5300428.7001723-.4022708 1.1219349s.5165789.710164.9572708.7100651z"/><path id="Shape" d="m27 31.272c0-2.209139-1.790861-4-4-4s-4 1.790861-4 4c.0022869.2871193.0358176.5731369.1.853-.4525852.0202564-.9025832.0794755-1.345.177-.5362685.1331006-.8631006.6757315-.73 1.212.1331007.5362685.6757315.8631006 1.212.73.7711895-.1545883 1.5628623-.1785886 2.342-.071h.026c1.394514.1738553 2.691416.807177 3.686 1.8.3923789.3789722 1.0160848.3735524 1.4018186-.0121814s.3911536-1.0094397.0121814-1.4018186c-.068-.067-.138-.122-.206-.186.9409262-.7555726 1.4921073-1.8942884 1.501-3.101zm-5.739.986c-.1719619-.3000912-.2619727-.640132-.261-.986.0013793-1.0028132.7451941-1.8495729 1.7394631-1.980207s1.93157.4952488 2.1919441 1.4636709c.2603741.9684222-.2366848 1.9799531-1.1624072 2.3655361-.7851778-.4183118-1.6316701-.7095889-2.508-.863z"/><path id="Shape" d="m38 25.276c1.939169.1503224 3.810585.7801985 5.446 1.833.2974236.1981038.6779414.2224856.9982161.0639611s.531649-.4758717.5545-.8325c.0228511-.3566283-.1462925-.6983573-.4437161-.8964611-1.9623502-1.27404-4.2199823-2.020729-6.555-2.168-.5522847 0-1 .4477153-1 1s.4477153 1 1 1z"/><path id="Shape" d="m44.243 32.3c-.4423971-.0974688-.8924191-.1563565-1.345-.176.3420343-1.5019319-.2087613-3.066817-1.4161253-4.0234043-1.2073639-.9565873-2.8567427-1.1348872-4.2406421-.4584188-1.3838993.6764685-2.2563946 2.087494-2.2432326 3.6278231.0068481 1.2086514.5578243 2.3499068 1.5 3.107-.068.064-.138.119-.206.186-.2599566.2510745-.3642126.6228779-.2726972.9725073.0915155.3496295.3645604.6226744.7141899.7141899.3496294.0915154.7214328-.0127406.9725073-.2726972.9948011-.9930842 2.2921094-1.6264324 3.687-1.8h.025c.7791245-.1078357 1.5708386-.0838342 2.342.071.5362685.1331006 1.0788994-.1937315 1.212-.73s-.1937315-1.0788994-.73-1.212zm-7.243-1.028c0-1.1045695.8954305-2 2-2s2 .8954305 2 2c.0009856.3463159-.0893872.6867659-.262.987-.8760852.1525912-1.7223237.4435595-2.507.862-.7449133-.3125964-1.2299632-1.0411564-1.231-1.849z"/><path id="Shape" d="m33 35h-4c-.5522847 0-1 .4477153-1 1s.4477153 1 1 1h4c.5522847 0 1-.4477153 1-1s-.4477153-1-1-1z"/><path id="Shape" d="m57.521 44.747c-.6631053-3.0125924-1.625206-5.9514886-2.872-8.773.8559816-.7517235 1.3479897-1.8347969 1.351-2.974v-3c-.001839-.5010525-.0988945-.9971898-.286-1.462.1896428-1.1698058.2852819-2.3529222.286-3.538.0020393-2.4793367-.3978125-4.9426124-1.184-7.294.6494673.1751552 1.3167637.2758032 1.989.3.1856696.0012349.3710767-.0141599.554-.046 1.0959925-.1740599 2.087827-.7501938 2.782-1.616.6951227-.8489509.990385-1.9564273.8101568-3.0387539-.1802282-1.0823267-.8184387-2.0343619-1.7511568-2.6122461-.9358371-.5963333-2.0608845-.82105741-3.154-.63-.35.058-1.323.223-3.907 2.157-.6570688-1.0143571-1.3926561-1.975636-2.2-2.875.8999467-.25409808 1.7325157-.70419079 2.438-1.318.8040009-.76440841 1.2936386-1.80145611 1.373-2.908.0904401-1.09246384-.2941737-2.17093182-1.0554932-2.9596328-.7613195-.78870099-1.8255303-1.21116569-2.9205068-1.1593672-1.1087545.04202643-2.1620112.49591803-2.954 1.273-.7689047.8577298-1.3288502 1.88178659-1.636 2.992-8.6010211-5.68671455-19.7669789-5.68671455-28.368 0-.3071498-1.11021341-.8670953-2.1342702-1.636-2.992-.7921864-.77739123-1.8458747-1.23131516-2.955-1.273-1.0948816-.05209828-2.1591147.37012976-2.92047389 1.15868038-.76135922.78855063-1.14599741 1.86693924-1.05552611 2.95931962.07911787 1.10689674.56877487 2.14434192 1.373 2.909.7055602.61392246 1.5380785 1.06432917 2.438 1.319-.8075204.898863-1.5431203 1.859824-2.2 2.874-2.584-1.934-3.56-2.099-3.907-2.157-1.09342193-.18993998-2.21837823.0346947-3.155.63-.93092489.5782611-1.56758906 1.5295598-1.74719574 2.6106465-.17960669 1.0810868.11525777 2.1871453.80919574 3.0353535.69335273.8662607 1.68507314 1.4425355 2.781 1.616.18459105.0318582.37168979.0469198.559.045.67223626-.0241968 1.33953272-.1248448 1.989-.3-.78852636 2.3530156-1.19007625 4.8183766-1.189 7.3.00084214 1.1850727.09648049 2.3681793.286 3.538-.18710545.4648102-.28416103.9609475-.286 1.462v3c.00353163 1.1388769.49502639 2.2216216 1.35 2.974-1.24542152 2.8215981-2.20715389 5.7600573-2.871 8.772-.5249105 2.5534809-.60407804 5.1785276-.234 7.759-2.01409651 1.9820258-3.17787834 4.6700211-3.245 7.495 0 .5522847.44771525 1 1 1h58c.5522847 0 1-.4477153 1-1-.0671701-2.8246761-1.2309646-5.512342-3.245-7.494.3702191-2.5804645.2910509-5.2055355-.234-7.759zm-1.962.387c.3807203 1.8744971.511524 3.7911586.389 5.7-1.8157955-1.4326975-3.8164877-2.6140074-5.948-3.512v-1.322c-.0041019-1.581797-1.237964-2.887492-2.817-2.981 1.2518234-1.8444933 2.2026736-3.8761466 2.817-6.019h2c.2921168-.0015382.5831862-.0350716.868-.1 1.1647811 2.6498049 2.0661198 5.407747 2.691 8.234zm-10.559 8.866h-13v-10c0-1.1045695.8954305-2 2-2h1v5c0 .5522847.4477153 1 1 1s1-.4477153 1-1v-5h2v5c0 .5522847.4477153 1 1 1s1-.4477153 1-1v-5h1c1.1045695 0 2 .8954305 2 2v3c0 .5522847.4477153 1 1 1s1-.4477153 1-1v-2h1c.5522847 0 1 .4477153 1 1v5c0 1.6568542-1.3431458 3-3 3zm-28 0c-1.6568542 0-3-1.3431458-3-3v-5c0-.5522847.4477153-1 1-1h1v2c0 .5522847.4477153 1 1 1s1-.4477153 1-1v-3c0-1.1045695.8954305-2 2-2h1v5c0 .5522847.4477153 1 1 1s1-.4477153 1-1v-5h2v5c0 .5522847.4477153 1 1 1s1-.4477153 1-1v-5h1c1.1045695 0 2 .8954305 2 2v10zm28.442-12c-.7084675-1.2328856-2.0200618-1.9949973-3.442-2h-8c-1.1531181.003719-2.247792.5079987-3 1.382-.752208-.8740013-1.8468819-1.378281-3-1.382h-8c-1.4219382.0050027-2.7335325.7671144-3.442 2-2.7113129-4.1406484-3.9228582-9.084939-3.433-14.01.012-.118.038-.5.076-1.037.092-1.341.247-3.584.424-5.356.0921921-.9566379.8596284-1.7080331 1.818-1.78 4.224-.309 11.859-1.474 15.575-5.8 3.68 4.325 11.315 5.49 15.536 5.8.9603813.0711907 1.7295752.8243333 1.821 1.783.177 1.769.332 4.012.425 5.353.037.54.063.919.074 1.028.4915995 4.9278861-.7196243 9.875481-3.432 14.019zm5.437-14h1.121c1.1045695 0 2 .8954305 2 2v3c0 1.1045695-.8954305 2-2 2h-1.516c.458152-2.3034078.5911126-4.659673.395-7zm5.5-15.964c.1434613-.0236663.2886-.0357055.434-.036.4622676-.0037145.9157714.1261557 1.306.374.457086.2725968.7709458.7326376.8580327 1.2576637.0870869.5250262-.0614358 1.0617631-.4060327 1.4673363-.3857949.4754482-.9347876.7902278-1.54.883-.542.091-2.126-.187-4.948-1.181 2.345-1.901 3.755-2.676 4.293-2.765zm-8.169-8.324c.434919-.43140611 1.0149947-.68525607 1.627-.712h.063c.5198983-.01556325 1.0212902.19365628 1.3759259.57414281.3546356.38048653.5281186.89533635.4760741 1.41285719-.0481985.61005022-.3215918 1.18036221-.767 1.6-.9636021.63359765-2.0291999 1.09637156-3.15 1.368-.0459882.0118544-.0910968.02689063-.135.045-.442.137-.916.278-1.455.424.855-2.896 1.572-4.333 1.965-4.712zm-37.965 1.276c-.0524339-.51822029.1213005-1.03386165.4766492-1.41468821.3553488-.38082656.8577454-.58979365 1.3783508-.57331179h.068c.6114969.02681546 1.1911233.28026836 1.626.711.393.379 1.115 1.816 2 4.678-2.923-.749-4.385-1.421-4.778-1.8-.4475813-.41890379-.7225508-.98988458-.771-1.601zm-5.276 10.994c-.60506597-.092514-1.15403721-.4069248-1.54-.882-.34391411-.4058413-.4920012-.9423651-.40495312-1.4671572.08704807-.524792.40042678-.9847719.85695312-1.2578428.39026188-.2478827.84367901-.3780752 1.306-.375.14673312.00014.29321323.0121794.438.036.538.089 1.948.863 4.3 2.718-2.833 1.046-4.416 1.316-4.956 1.228zm5.646.649c.6734684-.2367181 1.1654632-.8202201 1.285-1.524.0924623-.5824257-.0865708-1.1751506-.486-1.609.7978651-1.2507336 1.7245917-2.4144207 2.765-3.472.346.1.71.2 1.111.3.1711702.0441965.3472163.0667062.524.067.5278271.0026229 1.0337211-.2109367 1.4-.591.4947637-.51570122.6705313-1.25936294.459-1.942-.065-.221-.128-.427-.191-.631 8.1281446-5.63989787 18.9038554-5.63989787 27.032 0-.063.2-.126.41-.191.631-.2102261.68239436-.0337321 1.42512407.461 1.94.3662789.3800633.8721729.5936229 1.4.591.1764559-.0002717.3521739-.0227824.523-.067.4-.1.766-.2 1.112-.3 1.0409455 1.0585572 1.9677068 2.2236285 2.765 3.476-.3990356.4336436-.5777115 1.0260371-.485 1.608.1189095.7043958.6116376 1.2883131 1.286 1.524.363.133.7.251 1.019.361 1.0524598 2.5383528 1.5947761 5.259109 1.596 8.007 0 .516-.027 1.022-.063 1.522-.5900736-.3375812-1.2572012-.5173647-1.937-.522h-1.262c-.094-1.341-.225-3.122-.373-4.6-.186467-1.9264519-1.734625-3.4378597-3.665-3.578-3.149-.23-10.834-1.189-14.164-5.1-.3931172-.436576-.9530141-.6858487-1.5405-.6858487s-1.1473828.2492727-1.5405.6858487c-3.327 3.911-11.012 4.87-14.164 5.1-1.9270576.1439233-3.4705583 1.6544937-3.656 3.578-.148 1.478-.279 3.259-.373 4.6h-1.262c-.67978046.0047703-1.34687445.1845447-1.937.522-.036-.501-.063-1.006-.063-1.522.00207319-2.748524.54576435-5.4696983 1.6-8.008.317-.11.652-.228 1.015-.361zm-2.615 16.369v-3c0-1.1045695.8954305-2 2-2h1.12c-.1949038 2.3405548-.0602565 4.6968829.4 7h-1.52c-1.1045695 0-2-.8954305-2-2zm-1.559 12.133c.62486834-2.8259327 1.52620837-5.5835441 2.691-8.233.28481381.0649284.57588317.0984618.868.1h2c.6130868 2.1426096 1.5625808 4.1742498 2.813 6.019-1.577459.0955338-2.8090283 1.4006558-2.813 2.981v1.322c-2.13167835.8989261-4.13237862 2.0812498-5.948 3.515-.12323289-1.9101699.00757564-3.8282466.389-5.704zm5.559 4.388v1.479c.0033061 2.7600532 2.2399468 4.9966939 5 5v3h-13.933c.676-5.035 6.31-8.243 8.933-9.479zm7 6.479h11v3h-11zm24 3h-11v-3h11zm2 0v-3c2.7600532-.0033061 4.9966939-2.2399468 5-5v-1.481c2.624 1.232 8.259 4.434 8.934 9.481z"/></g></g></svg>