<?xml version="1.0" encoding="iso-8859-1"?>
<!-- Generator: Adobe Illustrator 19.0.0, SVG Export Plug-In . SVG Version: 6.00 Build 0)  -->
<svg version="1.1" id="Capa_1" xmlns="http://www.w3.org/2000/svg" xmlns:xlink="http://www.w3.org/1999/xlink" x="0px" y="0px"
	 viewBox="0 0 512 512" style="enable-background:new 0 0 512 512;" xml:space="preserve">
<g>
	<g>
		<path d="M379.659,464.05c-0.13-0.64-0.32-1.27-0.57-1.87c-0.25-0.61-0.56-1.19-0.92-1.73c-0.36-0.55-0.78-1.06-1.24-1.52
			c-0.46-0.46-0.979-0.88-1.52-1.24c-0.551-0.36-1.13-0.67-1.73-0.92c-0.6-0.25-1.229-0.45-1.87-0.57c-1.29-0.26-2.62-0.26-3.91,0
			c-0.63,0.12-1.26,0.32-1.869,0.57c-0.601,0.25-1.181,0.56-1.721,0.92c-0.55,0.36-1.06,0.78-1.529,1.24
			c-0.461,0.46-0.881,0.97-1.24,1.52c-0.36,0.54-0.67,1.12-0.92,1.73c-0.25,0.6-0.44,1.23-0.57,1.87c-0.13,0.64-0.19,1.3-0.19,1.95
			s0.06,1.31,0.19,1.95s0.32,1.27,0.57,1.88c0.25,0.6,0.56,1.18,0.92,1.72c0.359,0.55,0.779,1.06,1.24,1.52
			c0.47,0.46,0.979,0.88,1.529,1.24c0.54,0.36,1.12,0.67,1.721,0.92c0.609,0.25,1.239,0.45,1.869,0.57c0.65,0.13,1.311,0.2,1.96,0.2
			c0.65,0,1.31-0.07,1.95-0.2c0.641-0.12,1.271-0.32,1.87-0.57c0.601-0.25,1.18-0.56,1.73-0.92c0.54-0.36,1.06-0.78,1.52-1.24
			c0.46-0.46,0.88-0.97,1.24-1.52c0.36-0.54,0.67-1.12,0.92-1.72c0.25-0.61,0.44-1.24,0.57-1.88s0.199-1.3,0.199-1.95
			C379.858,465.35,379.789,464.69,379.659,464.05z"/>
	</g>
</g>
<g>
	<g>
		<path d="M291.845,299.101c-23.005-14.934-53.915-14.935-76.922,0c-4.632,3.007-5.949,9.2-2.942,13.832
			c1.915,2.951,5.123,4.557,8.397,4.556c1.865,0,3.754-0.522,5.436-1.613c16.489-10.705,38.65-10.706,55.142,0
			c4.634,3.007,10.825,1.69,13.832-2.943C297.795,308.301,296.477,302.108,291.845,299.101z"/>
	</g>
</g>
<g>
	<g>
		<path d="M211.038,208.168c0.877-0.89,1.736-1.804,2.551-2.767c3.569-4.214,3.046-10.524-1.168-14.094
			c-4.217-3.569-10.524-3.046-14.094,1.169c-9.38,11.076-25.867,14.349-40.095,7.961c-5.039-2.26-10.957-0.011-13.219,5.028
			c-2.262,5.038-0.011,10.956,5.027,13.218c7.471,3.354,15.367,4.972,23.137,4.972c1.897,0,3.787-0.099,5.661-0.29
			c2.154,7.938,9.391,13.337,17.42,13.337c1.199,0,2.415-0.12,3.634-0.37c4.73-0.969,8.799-3.722,11.458-7.752
			c2.659-4.03,3.589-8.853,2.62-13.583C213.455,212.482,212.43,210.179,211.038,208.168z"/>
	</g>
</g>
<g>
	<g>
		<path d="M361.754,205.466c-2.263-5.039-8.179-7.289-13.219-5.028c-14.229,6.387-30.716,3.113-40.093-7.961
			c-3.57-4.215-9.881-4.737-14.094-1.169c-4.215,3.569-4.738,9.879-1.17,14.094c0.816,0.963,1.675,1.877,2.552,2.767
			c-1.393,2.011-2.418,4.314-2.933,6.828c-0.97,4.73-0.04,9.553,2.619,13.583c2.659,4.03,6.728,6.783,11.456,7.752
			c1.222,0.25,2.449,0.374,3.667,0.374c3.501,0,6.928-1.021,9.917-2.994c3.709-2.447,6.318-6.097,7.467-10.347
			c1.875,0.192,3.767,0.291,5.666,0.291c7.769,0,15.668-1.619,23.138-4.972C361.765,216.422,364.016,210.504,361.754,205.466z"/>
	</g>
</g>
<g>
	<g>
		<path d="M194.736,257.498c-2.982-3.579-5.985-6.483-7.978-8.288c-3.811-3.45-9.617-3.451-13.428,0.001
			c-1.95,1.767-4.895,4.613-7.846,8.137c-5.279,6.303-11.571,16.037-11.571,26.62c0,14.411,11.724,26.134,26.135,26.134
			c14.41,0,26.134-11.724,26.134-26.134C206.182,273.445,199.957,263.765,194.736,257.498z M180.048,290.102
			c-3.383,0-6.135-2.752-6.135-6.134c0-3.307,2.224-7.942,6.134-12.837c3.91,4.893,6.135,9.534,6.135,12.837
			C186.182,287.35,183.43,290.102,180.048,290.102z"/>
	</g>
</g>
<g>
	<g>
		<path d="M451.884,287.165V182.207c30.824-7.731,53.721-35.661,53.721-68.848c0-31.455-20.023-62.091-36.821-82.253
			C458.552,18.825,448.206,8.82,441.329,2.589c-3.811-3.452-9.616-3.452-13.427-0.001c-6.717,6.083-16.855,15.88-27.013,28.007
			c-3.079,3.676-6.264,7.702-9.418,12.012C359.716,15.053,319.556,0,277.134,0h-47.5c-96.357,0-174.75,78.393-174.75,174.75v112.415
			c-28.19,7.165-48.488,32.623-48.488,62.511c0,35.579,28.945,64.524,64.524,64.524h25.964V502c0,5.523,4.478,10,10,10h293
			c5.523,0,10-4.477,10-10v-87.799h25.965c35.578,0,64.523-28.945,64.523-64.524C500.372,319.789,480.074,294.331,451.884,287.165z
			 M383.709,110.718c0.012-0.263,0.034-0.526,0.05-0.789c0.038-0.635,0.082-1.272,0.141-1.913c0.027-0.292,0.059-0.585,0.09-0.877
			c0.068-0.639,0.145-1.281,0.233-1.927c0.036-0.264,0.072-0.529,0.112-0.793c0.114-0.761,0.241-1.527,0.383-2.297
			c0.025-0.138,0.047-0.276,0.074-0.414c0.37-1.94,0.827-3.906,1.376-5.9c0.008-0.028,0.016-0.055,0.023-0.083
			c2.811-10.183,7.941-21.059,15.35-32.514c0.052-0.081,0.095-0.165,0.145-0.247c4.685-7.202,9.757-13.82,14.536-19.527
			c6.473-7.728,12.948-14.446,18.394-19.729c5.588,5.417,12.227,12.309,18.802,20.2c14.684,17.625,32.186,43.98,32.186,69.452
			c0,26.047-19.639,47.579-44.884,50.604c-0.01,0.001-0.019,0.001-0.029,0.002c-1.054,0.125-2.074,0.218-3.074,0.28
			c-0.01,0.001-0.02,0.002-0.029,0.002c-1.004,0.062-1.988,0.093-2.965,0.093c-28.11,0-50.98-22.87-50.98-50.981
			C383.643,112.487,383.668,111.605,383.709,110.718z M389.887,492h-0.003h-273v-16h211.393c5.522,0,10-4.477,10-10s-4.478-10-10-10
			H116.884v-41.799h79.337l-0.898,2.648c-0.374,1.104-0.545,2.235-0.529,3.35c0.024,1.672,0.468,3.307,1.278,4.753
			c0.81,1.446,1.987,2.703,3.475,3.62c1.009,0.622,2.027,1.224,3.052,1.808c0.163,0.093,0.329,0.178,0.492,0.27
			c0.861,0.484,1.724,0.961,2.595,1.418c0.301,0.158,0.605,0.302,0.907,0.457c0.738,0.378,1.476,0.756,2.22,1.115
			c0.372,0.179,0.749,0.344,1.123,0.518c0.679,0.317,1.357,0.637,2.041,0.938c0.413,0.181,0.831,0.348,1.246,0.523
			c0.651,0.276,1.301,0.556,1.956,0.817c0.442,0.176,0.888,0.337,1.332,0.507c0.632,0.242,1.263,0.489,1.899,0.717
			c0.469,0.169,0.943,0.322,1.414,0.483c0.616,0.211,1.23,0.427,1.849,0.626c0.484,0.155,0.971,0.295,1.456,0.443
			c0.611,0.186,1.22,0.377,1.833,0.551c0.495,0.141,0.994,0.266,1.491,0.398c0.607,0.162,1.213,0.33,1.823,0.48
			c0.506,0.125,1.014,0.235,1.521,0.352c0.604,0.139,1.207,0.283,1.813,0.411c0.517,0.109,1.035,0.203,1.553,0.304
			c0.599,0.116,1.197,0.238,1.797,0.343c0.527,0.092,1.055,0.17,1.583,0.254c0.594,0.094,1.187,0.193,1.782,0.277
			c0.536,0.075,1.074,0.137,1.611,0.203c0.588,0.073,1.176,0.15,1.765,0.213c0.543,0.058,1.086,0.101,1.629,0.15
			c0.586,0.052,1.173,0.109,1.76,0.151c0.545,0.039,1.091,0.064,1.637,0.095c0.585,0.032,1.171,0.068,1.756,0.09
			c0.549,0.021,1.099,0.028,1.648,0.039c0.583,0.012,1.166,0.028,1.749,0.03c0.115,0,0.23,0.006,0.345,0.006
			c0.465,0,0.93-0.017,1.396-0.023c0.536-0.007,1.072-0.011,1.608-0.027c0.585-0.018,1.169-0.049,1.754-0.077
			c0.533-0.025,1.066-0.046,1.599-0.08c0.586-0.037,1.172-0.089,1.758-0.137c0.53-0.043,1.06-0.081,1.589-0.133
			c0.589-0.057,1.177-0.13,1.765-0.198c0.525-0.061,1.051-0.116,1.575-0.185c0.59-0.078,1.178-0.17,1.766-0.259
			c0.521-0.078,1.043-0.15,1.563-0.237c0.591-0.098,1.18-0.212,1.77-0.321c0.516-0.095,1.032-0.184,1.546-0.288
			c0.595-0.12,1.186-0.255,1.779-0.385c0.506-0.111,1.014-0.216,1.519-0.336c0.597-0.141,1.19-0.298,1.785-0.451
			c0.499-0.128,0.999-0.248,1.497-0.384c0.596-0.162,1.189-0.341,1.782-0.515c0.492-0.144,0.986-0.28,1.477-0.432
			c0.599-0.185,1.194-0.388,1.79-0.584c0.481-0.159,0.964-0.31,1.444-0.476c0.602-0.209,1.199-0.435,1.798-0.656
			c0.47-0.173,0.942-0.338,1.41-0.518c0.607-0.234,1.208-0.486,1.811-0.732c0.455-0.186,0.913-0.362,1.366-0.555
			c0.618-0.263,1.23-0.544,1.845-0.82c0.433-0.194,0.868-0.379,1.299-0.579c0.639-0.298,1.272-0.615,1.906-0.927
			c0.4-0.197,0.804-0.384,1.203-0.586c0.697-0.354,1.387-0.729,2.078-1.1c0.33-0.177,0.663-0.344,0.991-0.525
			c1.016-0.561,2.026-1.14,3.028-1.739l2.996-1.789c3.035-1.813,4.811-5.03,4.872-8.409c0.02-1.126-0.151-2.271-0.529-3.387
			l-0.257-0.758l-0.254-0.751h79.337V492z M275.634,373.499l11.494,33.913l2.354,6.944c-22.758,11.922-49.593,12.236-72.534,1
			l2.693-7.944c0-0.001,0-0.002,0-0.002l11.494-33.912c0.225-0.665,0.378-1.346,0.46-2.032c0.041-0.343,0.064-0.687,0.069-1.031
			c0.025-1.72-0.393-3.436-1.24-4.973s-2.074-2.807-3.542-3.705c-0.88-0.538-1.848-0.943-2.872-1.19
			c-59.112-14.264-100.397-68.541-100.397-131.992v-31.62l96.042-70.85c27.152,13.545,126.855,62.765,163.502,73.692v28.777
			c-0.001,63.451-41.286,117.729-100.398,131.993c-2.73,0.659-5.058,2.436-6.413,4.896
			C274.991,367.923,274.733,370.839,275.634,373.499z M435.849,394.201h-35.965h-96.115l-5.815-17.157
			c28.253-9.156,53.633-27.067,72.306-51.225c21.214-27.446,32.898-61.981,32.898-97.244v-36.669c0-5.07-3.794-9.337-8.829-9.931
			c-17.931-2.115-114.52-48.039-171.192-76.49c-3.364-1.689-7.394-1.345-10.423,0.89l-105.036,77.484
			c-2.556,1.885-4.063,4.872-4.063,8.047v36.669c0,1.102,0.012,2.203,0.034,3.303c0.705,34.111,12.311,67.353,32.863,93.941
			c18.672,24.158,44.053,42.069,72.306,51.225L203,394.201h-96.116H70.92c-24.551,0-44.524-19.973-44.524-44.524
			c0-22.736,17.018-41.757,39.584-44.244c5.068-0.559,8.904-4.841,8.904-9.94V174.75C74.884,89.42,144.305,20,229.634,20h47.5
			c38.452,0,74.812,13.959,103.233,39.468c-7.275,12.473-12.181,24.541-14.71,36.096c-0.021,0.094-0.041,0.189-0.062,0.283
			c-0.182,0.845-0.353,1.688-0.51,2.528c-0.041,0.218-0.079,0.436-0.118,0.654c-0.135,0.757-0.265,1.513-0.379,2.265
			c-0.049,0.319-0.091,0.64-0.136,0.96c-0.095,0.673-0.189,1.347-0.267,2.016c-0.05,0.425-0.087,0.851-0.13,1.276
			c-0.058,0.578-0.121,1.157-0.166,1.732c-0.046,0.578-0.074,1.158-0.108,1.738c-0.024,0.431-0.058,0.863-0.076,1.292
			c-0.041,1.016-0.064,2.033-0.064,3.05c0,1.209,0.031,2.411,0.091,3.605c0.02,0.401,0.062,0.797,0.089,1.197
			c0.053,0.789,0.101,1.58,0.18,2.362c0.048,0.476,0.119,0.946,0.177,1.419c0.085,0.698,0.162,1.398,0.266,2.089
			c0.076,0.5,0.174,0.992,0.26,1.489c0.114,0.656,0.22,1.315,0.352,1.966c0.103,0.51,0.228,1.012,0.343,1.518
			c0.142,0.626,0.276,1.255,0.434,1.876c0.131,0.514,0.282,1.019,0.424,1.529c0.168,0.602,0.329,1.207,0.513,1.802
			c0.157,0.511,0.334,1.013,0.502,1.519c0.194,0.583,0.383,1.168,0.591,1.744c0.183,0.505,0.384,1.002,0.578,1.502
			c0.219,0.565,0.434,1.131,0.667,1.689c0.208,0.497,0.433,0.986,0.652,1.477c0.244,0.547,0.484,1.096,0.741,1.636
			c0.233,0.489,0.481,0.968,0.724,1.451c0.267,0.53,0.532,1.061,0.812,1.582c0.256,0.478,0.527,0.946,0.794,1.417
			c0.29,0.513,0.579,1.026,0.882,1.531c0.279,0.465,0.571,0.922,0.861,1.38c0.313,0.495,0.624,0.991,0.948,1.478
			c0.302,0.453,0.615,0.897,0.927,1.342c0.334,0.477,0.667,0.954,1.012,1.422c0.323,0.438,0.657,0.868,0.99,1.299
			c0.355,0.459,0.71,0.918,1.076,1.368c0.344,0.423,0.697,0.838,1.051,1.253c0.375,0.44,0.75,0.879,1.135,1.31
			c0.364,0.407,0.736,0.806,1.109,1.204c0.395,0.421,0.79,0.841,1.195,1.253c0.383,0.39,0.773,0.772,1.165,1.153
			c0.413,0.402,0.828,0.801,1.251,1.193c0.401,0.372,0.809,0.736,1.218,1.098c0.432,0.382,0.866,0.761,1.307,1.133
			c0.419,0.352,0.842,0.698,1.269,1.041c0.45,0.361,0.902,0.719,1.361,1.07c0.435,0.333,0.875,0.659,1.318,0.982
			c0.466,0.34,0.935,0.675,1.41,1.003c0.452,0.313,0.908,0.62,1.367,0.923c0.482,0.318,0.968,0.629,1.458,0.936
			c0.466,0.291,0.936,0.577,1.41,0.858c0.498,0.295,1,0.584,1.506,0.867c0.481,0.27,0.965,0.534,1.454,0.793
			c0.513,0.272,1.029,0.535,1.549,0.795c0.495,0.247,0.991,0.49,1.493,0.725c0.528,0.248,1.06,0.487,1.596,0.723
			c0.506,0.223,1.014,0.442,1.526,0.653c0.543,0.224,1.09,0.437,1.639,0.648c0.518,0.198,1.036,0.394,1.56,0.581
			c0.556,0.198,1.117,0.385,1.679,0.569c0.529,0.174,1.058,0.346,1.592,0.507c0.568,0.171,1.141,0.33,1.715,0.488
			c0.54,0.148,1.079,0.296,1.624,0.431c0.58,0.144,1.165,0.275,1.751,0.405c0.548,0.122,1.097,0.244,1.65,0.353
			c0.592,0.117,1.189,0.218,1.786,0.32c0.557,0.095,1.113,0.191,1.674,0.273c0.603,0.088,1.21,0.159,1.817,0.232
			c0.564,0.067,1.128,0.137,1.696,0.191c0.614,0.058,1.233,0.099,1.852,0.141c0.57,0.039,1.139,0.082,1.712,0.108
			c0.154,0.007,0.305,0.023,0.459,0.029v111.206c0,5.099,3.837,9.381,8.904,9.94c22.566,2.486,39.584,21.507,39.584,44.244
			C480.372,374.228,460.399,394.201,435.849,394.201z"/>
	</g>
</g>
<g>
</g>
<g>
</g>
<g>
</g>
<g>
</g>
<g>
</g>
<g>
</g>
<g>
</g>
<g>
</g>
<g>
</g>
<g>
</g>
<g>
</g>
<g>
</g>
<g>
</g>
<g>
</g>
<g>
</g>
</svg>
