<svg id="Outline-Expanded" enable-background="new 0 0 64 64" height="512" viewBox="0 0 64 64" width="512" xmlns="http://www.w3.org/2000/svg"><path d="m16.99 46.75c1.82-1.27 3.01-3.37 3.01-5.75h3v-2h-3.29c-.86-2.89-3.54-5-6.71-5-3.86 0-7 3.14-7 7 0 2.38 1.19 4.48 3.01 5.75-4.1 1.6-7.01 5.59-7.01 10.25v4c0 .55.45 1 1 1h20c.55 0 1-.45 1-1v-4c0-4.66-2.91-8.65-7.01-10.25zm-3.99-10.75c2.05 0 3.81 1.24 4.59 3h-9.18c.78-1.76 2.54-3 4.59-3zm-5 5h10c0 2.76-2.24 5-5 5s-5-2.24-5-5zm14 19h-18v-3c0-4.96 4.04-9 9-9s9 4.04 9 9z"/><path d="m20 35c-.145 0-.289-.031-.424-.094-.351-.165-.576-.518-.576-.906v-4h-12c-2.757 0-5-2.243-5-5v-18c0-2.757 2.243-5 5-5h39c2.757 0 5 2.243 5 5v18c0 2.757-2.243 5-5 5h-19.638l-5.722 4.768c-.183.153-.411.232-.64.232zm-13-31c-1.654 0-3 1.346-3 3v18c0 1.654 1.346 3 3 3h13c.553 0 1 .448 1 1v2.865l4.359-3.633c.18-.15.407-.232.641-.232h20c1.654 0 3-1.346 3-3v-18c0-1.654-1.346-3-3-3z"/><path d="m16 25c-4.963 0-9-4.038-9-9s4.037-9 9-9 9 4.038 9 9-4.037 9-9 9zm0-16c-3.859 0-7 3.14-7 7s3.141 7 7 7 7-3.14 7-7-3.141-7-7-7z"/><path d="m12 13h2v2h-2z"/><path d="m18 13h2v2h-2z"/><path d="m16 21c-2.206 0-4-1.794-4-4h2c0 1.103.897 2 2 2s2-.897 2-2h2c0 2.206-1.794 4-4 4z"/><path d="m37 24c-.271 0-.531-.11-.72-.306l-6.863-7.122c-1.882-1.954-1.882-5.132 0-7.085.924-.959 2.154-1.487 3.466-1.487h.001c1.311 0 2.541.528 3.464 1.486l.652.678.653-.677c.923-.959 2.154-1.487 3.464-1.487 1.312 0 2.542.528 3.466 1.486 1.882 1.953 1.882 5.132.001 7.085l-6.864 7.122c-.189.197-.449.307-.72.307zm-4.117-14c-.764 0-1.482.311-2.026.874-1.145 1.188-1.145 3.122.001 4.31l6.142 6.375 6.144-6.375c1.145-1.188 1.145-3.122 0-4.31-1.088-1.127-2.965-1.127-4.051 0l-1.373 1.424c-.377.392-1.062.392-1.439 0l-1.373-1.424c-.544-.563-1.262-.874-2.025-.874z"/><path d="m54.99 46.75c1.82-1.27 3.01-3.37 3.01-5.75 0-1.11-.26-2.16-.73-3.09 1.56-.35 2.73-1.75 2.73-3.41 0-1.93-1.57-3.5-3.5-3.5-1.86 0-3.39 1.46-3.49 3.29-.64-.19-1.31-.29-2.01-.29-3.86 0-7 3.14-7 7 0 2.38 1.19 4.48 3.01 5.75-4.1 1.6-7.01 5.59-7.01 10.25v4c0 .55.45 1 1 1h20c.55 0 1-.45 1-1v-4c0-4.66-2.91-8.65-7.01-10.25zm1.51-13.75c.83 0 1.5.67 1.5 1.5s-.67 1.5-1.5 1.5-1.5-.67-1.5-1.5.67-1.5 1.5-1.5zm-5.5 3c2.4 0 4.41 1.7 4.89 3.96-3.42-.2-6.47-1.32-7.95-2.91.84-.66 1.91-1.05 3.06-1.05zm-4 8c-.63-.83-1-1.87-1-3 0-.88.23-1.71.63-2.43 1.92 1.94 5.34 3.2 9.28 3.4-.46 2.3-2.48 4.03-4.91 4.03-.76 0-1.48-.17-2.12-.47 1.27-.68 2.12-2 2.12-3.53h-2c0 1.1-.9 2-2 2zm13 16h-18v-3c0-4.96 4.04-9 9-9s9 4.04 9 9z"/><path d="m50 50h2v2h-2z"/><path d="m50 54h2v2h-2z"/></svg>