<svg id="Layer_5" enable-background="new 0 0 64 64" height="512" viewBox="0 0 64 64" width="512" xmlns="http://www.w3.org/2000/svg"><g><path d="m48 16.905c0-1.84-1.284-3.378-3-3.789v-2.116h-2v2.117c-1.716.411-3 1.948-3 3.789 0 1.684 1.073 3.173 2.67 3.705l2.026.676c.78.26 1.303.987 1.303 1.809.001 1.05-.854 1.904-1.905 1.904h-.188c-1.051 0-1.906-.854-1.906-1.905v-1.095h-2v1.095c0 1.84 1.284 3.378 3 3.789v2.116h2v-2.117c1.716-.411 3-1.948 3-3.789 0-1.684-1.073-3.173-2.67-3.705l-2.026-.676c-.781-.259-1.304-.986-1.304-1.808 0-1.051.855-1.905 1.906-1.905h.188c1.051 0 1.906.854 1.906 1.905v.095z"/><path d="m63 20c0-10.477-8.523-19-19-19s-19 8.523-19 19c0 2.14.372 4.19 1.027 6.111l-1.45.58-3.209-8.559c2.163-1.192 3.632-3.493 3.632-6.132 0-3.859-3.14-7-7-7s-7 3.141-7 7c0 2.329 1.148 4.391 2.904 5.665l-5.997 11.448c-.292-.068-.594-.113-.907-.113-2.206 0-4 1.794-4 4s1.794 4 4 4 4-1.794 4-4c0-1.174-.517-2.22-1.325-2.952l5.999-11.453c.729.257 1.51.405 2.326.405.513 0 1.013-.059 1.495-.165l3.927 10.473 3.352-1.341c2.478 5.333 7.343 9.334 13.226 10.601v22.432h-4v-10h.382c1.444 0 2.618-1.175 2.618-2.618 0-.404-.096-.81-.276-1.171l-3.382-6.764c-.446-.892-1.344-1.447-2.342-1.447s-1.896.555-2.342 1.447l-3.382 6.764c-.18.361-.276.767-.276 1.171 0 1.443 1.174 2.618 2.618 2.618h.382v10h-7v-17h.382c1.444 0 2.618-1.175 2.618-2.618 0-.404-.096-.81-.276-1.171l-3.382-6.764c-.446-.892-1.344-1.447-2.342-1.447s-1.896.555-2.342 1.447l-3.382 6.764c-.18.361-.276.767-.276 1.171 0 1.443 1.174 2.618 2.618 2.618h.382v17h-7v-8h.382c1.444 0 2.618-1.175 2.618-2.618 0-.404-.096-.81-.276-1.171l-3.382-6.764c-.446-.892-1.344-1.447-2.342-1.447s-1.896.555-2.342 1.447l-3.382 6.764c-.18.361-.276.767-.276 1.171 0 1.443 1.174 2.618 2.618 2.618h.382v10h44v-24.432c8.561-1.843 15-9.464 15-18.568zm-56 15c-1.103 0-2-.897-2-2s.897-2 2-2 2 .897 2 2-.897 2-2 2zm6-23c0-2.757 2.243-5 5-5s5 2.243 5 5-2.243 5-5 5-5-2.243-5-5zm-5 49h-2v-10h-2.382c-.341 0-.618-.277-.618-.618 0-.096.022-.191.065-.276l3.382-6.764c.211-.422.895-.422 1.105 0l3.382 6.764c.044.084.066.18.066.276 0 .341-.277.618-.618.618h-2.382zm48.949-42c-.217-2.833-1.341-5.411-3.088-7.447l2.827-2.827c2.464 2.77 4.03 6.341 4.261 10.274zm-12.949 12c-6.065 0-11-4.935-11-11s4.935-11 11-11 11 4.935 11 11-4.935 11-11 11zm8.447-20.861c-2.036-1.747-4.614-2.871-7.447-3.088v-4c3.933.231 7.505 1.797 10.275 4.261zm-9.447-3.088c-2.833.217-5.411 1.341-7.447 3.088l-2.827-2.827c2.77-2.464 6.341-4.03 10.275-4.261v4zm-8.861 4.502c-1.747 2.036-2.871 4.615-3.088 7.447h-4c.23-3.933 1.797-7.505 4.261-10.274zm-3.088 9.447c.217 2.833 1.341 5.411 3.088 7.447l-2.827 2.827c-2.464-2.77-4.03-6.341-4.261-10.274zm4.502 8.861c2.036 1.747 4.615 2.871 7.447 3.088v4c-3.933-.231-7.505-1.797-10.275-4.261zm9.447 3.088c2.833-.217 5.411-1.341 7.447-3.088l2.827 2.827c-2.77 2.464-6.341 4.03-10.275 4.261v-4zm8.861-4.502c1.747-2.036 2.871-4.615 3.088-7.447h4c-.23 3.933-1.797 7.505-4.261 10.274zm-24.243 20.553c-.341 0-.618-.277-.618-.618 0-.096.022-.191.065-.276l3.382-6.764c.211-.422.895-.422 1.105 0l3.382 6.764c.044.084.066.18.066.276 0 .341-.277.618-.618.618h-2.382v12h-2v-12zm-13-7c-.341 0-.618-.277-.618-.618 0-.096.022-.191.065-.276l3.382-6.764c.211-.422.895-.422 1.105 0l3.382 6.764c.044.084.066.18.066.276 0 .341-.277.618-.618.618h-2.382v19h-2v-19zm29.382 19h-4v-22.107c.658.069 1.324.107 2 .107s1.342-.038 2-.107z"/><path d="m18 9c-1.654 0-3 1.346-3 3s1.346 3 3 3 3-1.346 3-3-1.346-3-3-3zm0 4c-.551 0-1-.448-1-1s.449-1 1-1 1 .448 1 1-.449 1-1 1z"/></g></svg>