<?xml version="1.0" encoding="iso-8859-1"?>
<!-- Generator: Adobe Illustrator 19.0.0, SVG Export Plug-In . SVG Version: 6.00 Build 0)  -->
<svg version="1.1" id="Capa_1" xmlns="http://www.w3.org/2000/svg" xmlns:xlink="http://www.w3.org/1999/xlink" x="0px" y="0px"
	 viewBox="0 0 512 512" style="enable-background:new 0 0 512 512;" xml:space="preserve">
<g>
	<g>
		<path d="M382.28,464.05c-0.13-0.64-0.32-1.27-0.57-1.87c-0.25-0.61-0.56-1.19-0.92-1.73c-0.37-0.55-0.78-1.06-1.25-1.52
			c-2.32-2.32-5.77-3.39-9.02-2.73c-0.64,0.12-1.27,0.32-1.87,0.57c-0.61,0.25-1.19,0.56-1.73,0.92c-0.55,0.36-1.06,0.78-1.52,1.24
			c-0.46,0.46-0.88,0.97-1.24,1.52c-0.36,0.54-0.67,1.12-0.92,1.73c-0.25,0.6-0.44,1.23-0.57,1.87s-0.2,1.3-0.2,1.95
			c0,2.63,1.07,5.21,2.93,7.07c0.46,0.46,0.97,0.88,1.52,1.24c0.54,0.36,1.12,0.67,1.73,0.92c0.6,0.25,1.23,0.45,1.87,0.58
			c0.64,0.13,1.3,0.19,1.95,0.19c2.64,0,5.21-1.07,7.07-2.93c1.87-1.86,2.93-4.44,2.93-7.07
			C382.47,465.35,382.41,464.69,382.28,464.05z"/>
	</g>
</g>
<g>
	<g>
		<path d="M454.5,287.165V174.75C454.5,78.393,376.107,0,279.75,0h-47.5C135.893,0,57.5,78.393,57.5,174.75v112.415
			c-28.191,7.165-48.488,32.623-48.488,62.511c0,35.579,28.945,64.524,64.524,64.524H99.5V502c0,5.523,4.477,10,10,10h293
			c5.523,0,10-4.477,10-10v-87.799h25.964c35.579,0,64.524-28.945,64.524-64.524C502.988,319.789,482.691,294.331,454.5,287.165z
			 M392.5,492h-273v-16h211.392c5.523,0,10-4.477,10-10s-4.477-10-10-10H119.5v-41.799h79.337l-0.898,2.649
			c-0.374,1.103-0.545,2.235-0.529,3.35c0.04,2.787,1.247,5.47,3.371,7.348c0.425,0.376,0.886,0.719,1.382,1.025
			c1.006,0.62,2.02,1.22,3.041,1.802c0.354,0.202,0.714,0.389,1.07,0.586c0.67,0.371,1.339,0.747,2.015,1.101
			c0.423,0.222,0.852,0.427,1.277,0.643c0.616,0.312,1.23,0.63,1.85,0.929c0.456,0.219,0.917,0.422,1.376,0.634
			c0.596,0.276,1.19,0.558,1.79,0.822c0.481,0.211,0.967,0.406,1.45,0.609c0.583,0.245,1.163,0.497,1.749,0.731
			c0.501,0.2,1.007,0.383,1.51,0.575c0.574,0.218,1.146,0.443,1.722,0.65c0.514,0.185,1.032,0.353,1.548,0.529
			c0.571,0.195,1.141,0.396,1.715,0.581c0.528,0.169,1.059,0.323,1.589,0.483c0.566,0.171,1.13,0.349,1.698,0.51
			c0.537,0.152,1.078,0.289,1.617,0.432c0.565,0.15,1.13,0.307,1.697,0.447c0.543,0.134,1.09,0.253,1.635,0.378
			c0.566,0.13,1.13,0.265,1.697,0.385c0.549,0.116,1.101,0.216,1.651,0.323c0.567,0.11,1.133,0.225,1.702,0.325
			c0.552,0.097,1.105,0.179,1.658,0.266c0.569,0.09,1.138,0.185,1.708,0.266c0.555,0.078,1.111,0.141,1.666,0.21
			c0.571,0.07,1.141,0.146,1.713,0.206c0.556,0.059,1.113,0.104,1.67,0.153c0.573,0.051,1.145,0.106,1.718,0.148
			c0.557,0.04,1.114,0.066,1.671,0.096c0.575,0.032,1.15,0.067,1.725,0.089c0.555,0.021,1.111,0.028,1.666,0.04
			c0.578,0.012,1.155,0.028,1.733,0.03c0.116,0,0.232,0.006,0.347,0.006c0.469,0,0.937-0.017,1.405-0.023
			c0.532-0.008,1.064-0.011,1.595-0.027c0.59-0.018,1.179-0.049,1.769-0.078c0.528-0.025,1.056-0.046,1.584-0.079
			c0.592-0.038,1.184-0.09,1.775-0.138c0.524-0.043,1.048-0.08,1.572-0.132c0.593-0.058,1.185-0.13,1.777-0.199
			c0.522-0.06,1.044-0.115,1.565-0.184c0.594-0.078,1.187-0.172,1.78-0.261c0.516-0.077,1.032-0.149,1.546-0.234
			c0.599-0.099,1.195-0.214,1.793-0.325c0.508-0.094,1.017-0.182,1.524-0.284c0.599-0.12,1.195-0.257,1.793-0.388
			c0.502-0.111,1.006-0.214,1.507-0.333c0.6-0.142,1.197-0.3,1.795-0.453c0.495-0.127,0.992-0.246,1.486-0.381
			c0.6-0.164,1.197-0.344,1.795-0.519c0.488-0.143,0.978-0.278,1.464-0.428c0.606-0.187,1.207-0.392,1.81-0.591
			c0.474-0.156,0.95-0.305,1.423-0.469c0.61-0.211,1.215-0.441,1.822-0.664c0.462-0.17,0.926-0.332,1.386-0.509
			c0.616-0.237,1.226-0.493,1.838-0.742c0.446-0.182,0.894-0.355,1.338-0.544c0.633-0.269,1.261-0.557,1.89-0.84
			c0.417-0.188,0.838-0.366,1.253-0.559c0.656-0.306,1.307-0.631,1.958-0.952c0.383-0.189,0.77-0.367,1.151-0.561
			c0.714-0.363,1.421-0.746,2.129-1.127c0.313-0.168,0.629-0.327,0.941-0.499c1.017-0.561,2.026-1.14,3.029-1.739l2.996-1.789
			c0.374-0.224,0.723-0.475,1.058-0.739c0.344-0.271,0.674-0.556,0.975-0.865c2.575-2.641,3.539-6.565,2.309-10.191l-0.511-1.509
			H392.5V492z M278.249,373.498l13.848,40.857c-2.134,1.118-4.303,2.133-6.502,3.047c-21.254,8.833-45.24,8.137-66.032-2.047
			l2.693-7.945l11.494-33.913c0.225-0.665,0.378-1.346,0.46-2.032c0.041-0.343,0.064-0.687,0.068-1.031
			c0.025-1.72-0.393-3.436-1.24-4.973c-0.294-0.534-0.642-1.029-1.023-1.494c-1.37-1.677-3.253-2.885-5.39-3.401
			c-59.112-14.263-100.397-68.541-100.397-131.991v-31.62l96.042-70.849c15.274,7.619,53.503,26.526,90.551,43.555
			c2.058,0.946,4.113,1.886,6.16,2.819c2.047,0.932,4.086,1.857,6.113,2.77c5.068,2.285,10.061,4.505,14.915,6.626
			c1.942,0.848,3.861,1.68,5.754,2.495c0.947,0.407,1.886,0.809,2.819,1.207c2.798,1.193,5.533,2.342,8.189,3.441
			c0.885,0.366,1.762,0.727,2.63,1.081c1.735,0.709,3.434,1.394,5.091,2.053c8.288,3.295,15.553,5.937,21.279,7.644v28.777
			c0,63.451-41.285,117.728-100.397,131.992c-2.73,0.659-5.058,2.436-6.413,4.896C277.605,367.922,277.347,370.838,278.249,373.498z
			 M438.464,394.201H402.5h-96.116l-5.815-17.157c28.253-9.156,53.633-27.067,72.306-51.225
			c15.911-20.585,26.46-45.157,30.741-71.033c0.178-1.078,0.346-2.159,0.502-3.241c0.313-2.165,0.582-4.338,0.807-6.518
			c0.562-5.45,0.848-10.942,0.848-16.452v-36.669c0-5.07-3.794-9.337-8.829-9.931c-17.931-2.114-114.521-48.039-171.192-76.49
			c-3.365-1.69-7.393-1.346-10.423,0.89l-105.036,77.484c-2.555,1.885-4.063,4.872-4.063,8.047v36.669
			c0,5.51,0.285,11.002,0.847,16.452c0.225,2.18,0.494,4.353,0.807,6.518c0.157,1.083,0.324,2.163,0.502,3.241
			c4.28,25.876,14.83,50.449,30.74,71.033c12.837,16.608,28.845,30.264,46.777,40.152c1.63,0.899,3.276,1.767,4.937,2.603
			c3.322,1.672,6.704,3.217,10.138,4.63c3.434,1.413,6.921,2.695,10.453,3.839l-5.815,17.157H109.5H73.536
			c-24.551,0-44.524-19.973-44.524-44.524c0-22.737,17.017-41.757,39.584-44.244c5.068-0.559,8.905-4.841,8.905-9.94V174.75
			C77.5,89.42,146.92,20,232.25,20h47.5c85.33,0,154.75,69.42,154.75,154.75v120.743c0,5.099,3.836,9.381,8.905,9.94
			c22.566,2.486,39.583,21.507,39.583,44.244C482.988,374.228,463.015,394.201,438.464,394.201z"/>
	</g>
</g>
<g>
	<g>
		<path d="M308.481,283.717c-3.228-4.482-9.477-5.498-13.959-2.271c-23.041,16.595-54.004,16.595-77.045,0
			c-4.483-3.228-10.731-2.211-13.959,2.271c-3.228,4.482-2.211,10.731,2.271,13.959c15.017,10.814,32.614,16.222,50.211,16.222
			c17.597,0,35.194-5.407,50.211-16.222C310.693,294.448,311.709,288.199,308.481,283.717z"/>
	</g>
</g>
<g>
	<g>
		<path d="M348.407,208.583c-16.414-11.821-38.471-11.821-54.885,0c-4.481,3.228-5.498,9.477-2.27,13.959
			c3.229,4.482,9.478,5.498,13.959,2.271c9.423-6.788,22.086-6.787,31.508,0c1.769,1.273,3.811,1.886,5.836,1.886
			c3.106,0,6.169-1.444,8.123-4.157C353.906,218.06,352.889,211.811,348.407,208.583z"/>
	</g>
</g>
<g>
	<g>
		<path d="M218.476,208.583c-16.414-11.821-38.471-11.822-54.885,0c-4.481,3.228-5.498,9.477-2.27,13.959
			c3.229,4.482,9.478,5.497,13.959,2.27c9.422-6.787,22.085-6.788,31.508,0c1.769,1.274,3.812,1.887,5.836,1.887
			c3.107,0,6.169-1.444,8.123-4.157C223.974,218.06,222.958,211.811,218.476,208.583z"/>
	</g>
</g>
<g>
</g>
<g>
</g>
<g>
</g>
<g>
</g>
<g>
</g>
<g>
</g>
<g>
</g>
<g>
</g>
<g>
</g>
<g>
</g>
<g>
</g>
<g>
</g>
<g>
</g>
<g>
</g>
<g>
</g>
</svg>
