<?xml version="1.0" encoding="iso-8859-1"?>
<!-- Generator: Adobe Illustrator 19.0.0, SVG Export Plug-In . SVG Version: 6.00 Build 0)  -->
<svg version="1.1" id="Capa_1" xmlns="http://www.w3.org/2000/svg" xmlns:xlink="http://www.w3.org/1999/xlink" x="0px" y="0px"
	 viewBox="0 0 512.002 512.002" style="enable-background:new 0 0 512.002 512.002;" xml:space="preserve">
<g>
	<g>
		<path d="M233.792,63.811c-0.205-0.269-0.422-0.532-0.668-0.778c-4.777-5.462-10.622-9.916-17.222-13.032
			c4.762-5.312,7.665-12.323,7.665-20.001c0-16.542-13.458-30-30-30c-16.542,0-30,13.458-30,30c0,7.678,2.903,14.689,7.665,20.001
			c-6.6,3.116-12.444,7.57-17.194,13.007c-0.273,0.271-0.491,0.533-0.695,0.802c-7.654,9.124-12.275,20.875-12.275,33.689
			c-0.001,28.95,23.55,52.501,52.499,52.501c28.949,0,52.5-23.551,52.5-52.5C246.067,84.686,241.446,72.935,233.792,63.811z
			 M193.567,15c8.271,0,15,6.729,15,15s-6.729,15-15,15s-15-6.729-15-15S185.296,15,193.567,15z M193.567,60
			c8.678,0,16.671,2.971,23.032,7.939c-6.742,4.611-14.697,7.098-23.032,7.098c-8.335,0-16.29-2.487-23.032-7.098
			C176.896,62.971,184.889,60,193.567,60z M193.567,135.001c-20.678,0-37.5-16.822-37.5-37.5c0-6.566,1.701-12.74,4.678-18.113
			c9.49,6.91,20.87,10.649,32.822,10.649c11.953,0,23.332-3.739,32.822-10.648c2.977,5.373,4.678,11.546,4.678,18.112
			C231.067,118.179,214.245,135.001,193.567,135.001z"/>
	</g>
</g>
<g>
	<g>
		<path d="M353.437,417c-23.639,0-43.295,17.36-46.902,40h-75.468v-97h22.5c4.142,0,7.5-3.358,7.5-7.5v-50.335
			c0-3.098-0.222-6.172-0.641-9.208c9.761-6.981,15.641-18.203,15.641-30.457v-40c0-18.417-13.349-33.765-30.878-36.903
			C242.119,173.764,231.347,165,218.567,165h-50c-12.78,0-23.552,8.764-26.622,20.597c-17.529,3.138-30.878,18.485-30.878,36.903v40
			c0,12.254,5.88,23.476,15.641,30.457c-0.418,3.036-0.641,6.111-0.641,9.208V352.5c0,4.142,3.358,7.5,7.5,7.5h22.5v129.094
			l-24.872,8.291c-3.93,1.31-6.053,5.557-4.744,9.487c1.048,3.143,3.974,5.13,7.114,5.13c0.786,0,1.586-0.125,2.373-0.387l30-10
			c3.063-1.021,5.128-3.887,5.128-7.115V360h45v97h-7.5c-4.142,0-7.5,3.358-7.5,7.5c0,4.142,3.358,7.5,7.5,7.5h7.5v22.5
			c0,3.228,2.066,6.094,5.128,7.115l30,10c0.787,0.262,1.586,0.387,2.373,0.387c3.14,0,6.066-1.988,7.114-5.13
			c1.31-3.93-0.814-8.177-4.744-9.487l-24.872-8.291V472h75.468c3.607,22.64,23.263,40,46.902,40c26.191,0,47.5-21.309,47.5-47.5
			C400.935,438.309,379.628,417,353.437,417z M246.067,201.29c8.729,3.096,15,11.432,15,21.21v40c0,5.277-1.819,10.236-5.011,14.166
			c-2.473-6.052-5.822-11.754-9.989-16.907V201.29z M156.067,192.5c0-6.893,5.607-12.5,12.5-12.5h50c6.893,0,12.5,5.607,12.5,12.5
			V255h-75V192.5z M131.078,276.666c-3.192-3.93-5.011-8.889-5.011-14.166v-40c0-9.778,6.271-18.114,15-21.21v58.469
			C136.901,264.912,133.551,270.614,131.078,276.666z M141.067,345v-42.835c0-11.687,3.905-22.981,11.039-32.165h82.923
			c7.133,9.183,11.039,20.478,11.039,32.165V345H141.067z M353.437,497c-17.92,0-32.5-14.58-32.5-32.5c0-17.92,14.58-32.5,32.5-32.5
			c17.92,0,32.5,14.58,32.5,32.5C385.937,482.42,371.357,497,353.437,497z"/>
	</g>
</g>
<g>
</g>
<g>
</g>
<g>
</g>
<g>
</g>
<g>
</g>
<g>
</g>
<g>
</g>
<g>
</g>
<g>
</g>
<g>
</g>
<g>
</g>
<g>
</g>
<g>
</g>
<g>
</g>
<g>
</g>
</svg>
