<?xml version="1.0" encoding="iso-8859-1"?>
<!-- Generator: Adobe Illustrator 17.1.0, SVG Export Plug-In . SVG Version: 6.00 Build 0)  -->
<!DOCTYPE svg PUBLIC "-//W3C//DTD SVG 1.1//EN" "http://www.w3.org/Graphics/SVG/1.1/DTD/svg11.dtd">
<svg version="1.1" id="Capa_1" xmlns="http://www.w3.org/2000/svg" xmlns:xlink="http://www.w3.org/1999/xlink" x="0px" y="0px"
	 viewBox="0 0 486.104 486.104" style="enable-background:new 0 0 486.104 486.104;" xml:space="preserve">
<path d="M400.715,51.941c-1.471-0.911-3.313-0.995-4.862-0.224c-0.333,0.166-33.816,16.55-83.101,16.55
	c-26.062,0-41.575-10.64-46.2-14.358V30.596c0-0.84-0.183-8.428-6.492-15.999C251.987,4.911,238.134,0,218.886,0
	c-49.895,0-89.638,16.33-104.205,23.23c-0.904-0.899-2.149-1.456-3.525-1.456H88.019c-2.762,0-5,2.239-5,5v454.33
	c0,2.761,2.238,5,5,5h23.138c2.762,0,5-2.239,5-5V213.051c11.874-5.113,58.429-23.852,102.729-23.852
	c1.219,0,2.392,0.025,3.533,0.067v54.672c0,0.205,0.016,0.408,0.04,0.61c0.005,0.038,0.013,0.076,0.019,0.114
	c0.042,0.284,0.103,0.563,0.192,0.833c0.004,0.011,0.006,0.023,0.01,0.034c0.092,0.274,0.213,0.536,0.35,0.79
	c0.022,0.041,0.042,0.082,0.065,0.122c0.137,0.237,0.296,0.462,0.471,0.675c0.038,0.046,0.076,0.091,0.116,0.136
	c0.16,0.18,0.328,0.354,0.515,0.511c0.021,0.018,0.045,0.029,0.066,0.047c0.094,0.077,0.2,0.141,0.302,0.212
	c0.163,0.114,0.328,0.224,0.502,0.317c0.041,0.022,0.074,0.053,0.116,0.074c1.438,0.718,35.784,17.584,87.568,17.584
	c69.537,0,88.111-17.764,88.867-18.521c0.938-0.938,1.466-2.21,1.466-3.537V56.191C403.085,54.46,402.188,52.853,400.715,51.941z
	 M93.019,476.104v-261.31h13.138v261.31H93.019z M256.552,209.847c0.002,0.186,0.038,0.362,0.06,0.543
	c0.017,0.144,0.019,0.292,0.048,0.432c0.038,0.184,0.106,0.354,0.164,0.53l-0.021,0.007c0,0-0.036-0.081-0.07-0.243
	c0.015,0.071,1.346,7.206-12.094,18.681c-4.342,3.708-8.813,6.002-12.22,7.374v-46.878
	C255.743,194.43,256.529,209.027,256.552,209.847z M393.085,241.471c-5.408,3.595-26.306,14.524-80.333,14.524
	c-32.219,0-57.68-6.994-71.545-11.883c3.135-1.649,6.556-3.832,9.926-6.71c16.367-13.975,16.055-24.745,15.419-28.152V107.392
	c0-2.761-2.238-5-5-5s-5,2.239-5,5v82.821c-8.326-7.309-20.961-11.014-37.666-11.014c-42.704,0-86.02,16.047-102.729,22.975V71.62
	c0-2.761-2.238-5-5-5s-5,2.239-5,5v133.175H93.019V31.775h13.138v9.826c0,2.761,2.238,5,5,5s5-2.239,5-5v-7.949
	C126.609,28.493,167.659,10,218.886,10c36.718,0,37.646,19.813,37.666,20.596v42.673c0,2.761,2.238,5,5,5s5-2.239,5-5v-7.147
	c8.717,5.366,24.097,12.147,46.2,12.147c38.605,0,67.521-9.385,80.333-14.459V241.471z"/>
<g>
</g>
<g>
</g>
<g>
</g>
<g>
</g>
<g>
</g>
<g>
</g>
<g>
</g>
<g>
</g>
<g>
</g>
<g>
</g>
<g>
</g>
<g>
</g>
<g>
</g>
<g>
</g>
<g>
</g>
</svg>
