<svg id="Capa_1" enable-background="new 0 0 512 512" height="512" viewBox="0 0 512 512" width="512" xmlns="http://www.w3.org/2000/svg"><g><path d="m400.354 70.591c-2.22-3.498-6.855-4.529-10.352-2.312-3.497 2.221-4.532 6.854-2.312 10.352 13.896 21.889 21.242 47.225 21.242 73.269v281.543c0 10.26-8.348 18.607-18.607 18.607h-13.312v-39.276c0-36.7-26.419-67.329-61.234-73.914 46.039-22.29 77.865-69.483 77.865-123.972v-78.723c0-5.875-4.603-10.743-10.477-11.082-4.041-.234-7.806-.528-11.374-.883.359-2.042.557-4.138.557-6.281 0-9.401-3.646-21.169-9.513-30.711-7.326-11.912-16.798-18.473-26.671-18.473-9.874 0-19.346 6.561-26.672 18.473-1.576 2.563-2.985 5.289-4.213 8.084-1.63-1.826-3.21-3.742-4.723-5.751-3.355-4.45-9.676-5.556-14.392-2.51-40.715 26.311-89.104 38.099-156.896 38.223-6.02.01-10.916 4.907-10.916 10.919v41.63c0 4.143 3.357 7.5 7.5 7.5s7.5-3.357 7.5-7.5v-37.57c66.976-.58 115.951-12.54 157.68-38.526 2.96 3.636 6.119 6.989 9.42 10.051-.305 2.128-.473 4.198-.473 6.161 0 19.952 16.232 36.185 36.185 36.185 12.25 0 23.09-6.125 29.639-15.466 4.032.481 8.279.875 12.838 1.189v75.062c0 67.626-55.019 122.645-122.645 122.645s-122.645-55.019-122.645-122.645v-7.098c0-4.143-3.357-7.5-7.5-7.5s-7.5 3.357-7.5 7.5v7.098c0 54.489 31.827 101.683 77.866 123.972-34.814 6.585-61.234 37.214-61.234 73.914v39.276h-13.312c-10.261 0-18.608-8.348-18.608-18.607v-281.546c.003-75.486 61.416-136.898 136.903-136.898h32.065c37.136 0 71.896 14.631 97.875 41.197 2.896 2.96 7.644 3.016 10.606.118 2.961-2.896 3.014-7.645.118-10.606-28.824-29.476-67.393-45.709-108.599-45.709h-32.065c-83.758 0-151.9 68.142-151.9 151.898v281.543c0 18.531 15.077 33.607 33.608 33.607h13.312v28.823c0 8.893 7.234 16.128 16.127 16.128h139.646c4.143 0 7.5-3.357 7.5-7.5s-3.357-7.5-7.5-7.5h-139.646c-.621 0-1.127-.506-1.127-1.128v-83.1c0-33.218 27.024-60.242 60.242-60.242h11.275v10.271c0 19.007 15.463 34.47 34.47 34.47s34.47-15.463 34.47-34.47v-10.27h11.325c33.218 0 60.242 27.024 60.242 60.242v83.1c0 .622-.506 1.128-1.128 1.128h-40.137c-4.143 0-7.5 3.357-7.5 7.5s3.357 7.5 7.5 7.5h40.137c8.893 0 16.128-7.235 16.128-16.128v-28.823h13.312c18.531 0 33.607-15.076 33.607-33.607v-281.544c.001-28.895-8.153-57.011-23.577-81.307zm-64.187 68.511c-11.682 0-21.185-9.503-21.185-21.185 0-13.497 11.362-34.184 21.185-34.184 9.821 0 21.184 20.687 21.184 34.184 0 11.682-9.503 21.185-21.184 21.185zm-80.191 243.169c-10.735 0-19.47-8.734-19.47-19.47v-11.657c6.371.907 12.878 1.387 19.495 1.387 6.6 0 13.09-.477 19.444-1.38v11.65c0 10.735-8.734 19.47-19.469 19.47z"/><path d="m208.241 208.954v-5.288c0-4.143-3.357-7.5-7.5-7.5s-7.5 3.357-7.5 7.5v5.288c0 4.143 3.357 7.5 7.5 7.5s7.5-3.357 7.5-7.5z"/><path d="m318.76 208.954v-5.288c0-4.143-3.357-7.5-7.5-7.5s-7.5 3.357-7.5 7.5v5.288c0 4.143 3.357 7.5 7.5 7.5s7.5-3.357 7.5-7.5z"/><path d="m293.556 292.505c4.143 0 7.5-3.357 7.5-7.5s-3.357-7.5-7.5-7.5h-75.11c-4.143 0-7.5 3.357-7.5 7.5s3.357 7.5 7.5 7.5z"/></g></svg>