<?xml version="1.0" encoding="iso-8859-1"?>
<!-- Generator: Adobe Illustrator 17.1.0, SVG Export Plug-In . SVG Version: 6.00 Build 0)  -->
<!DOCTYPE svg PUBLIC "-//W3C//DTD SVG 1.1//EN" "http://www.w3.org/Graphics/SVG/1.1/DTD/svg11.dtd">
<svg version="1.1" id="Capa_1" xmlns="http://www.w3.org/2000/svg" xmlns:xlink="http://www.w3.org/1999/xlink" x="0px" y="0px"
	 viewBox="0 0 218.56 218.56" style="enable-background:new 0 0 218.56 218.56;" xml:space="preserve">
<path d="M109.211,218.56c-37.511,0-68.027-30.517-68.027-68.027v-0.988h-1.487c-11.568,0-20.979-9.411-20.979-20.979v-9.606
	c0-11.568,9.411-20.979,20.979-20.979h1.487V67.062c0-11.853,5.485-23.12,14.753-30.465c-0.332-1.606-0.506-3.262-0.506-4.942
	c0-4.32,2.3-8.756,6.152-11.868c0.039-0.031,0.078-0.061,0.119-0.09l2.334-1.666c0.082-0.059,0.168-0.113,0.258-0.162
	c0.363-0.198,0.774-0.445,1.245-0.728c2.199-1.319,5.522-3.313,11.019-4.99c7.577-2.485,15.576-3.941,24.415-4.437
	c11.437-0.641,23.009,0.097,33.458,2.136c6.813,1.163,12.479,1.501,16.794,0.99c6.302-0.745,8.784-3.748,9.396-4.651
	c0.751-1.111,0.881-3.166,0.874-3.655c-0.015-1.131,0.731-2.131,1.82-2.439c1.09-0.31,2.249,0.154,2.827,1.126
	c0.136,0.228,3.305,5.651,1.673,12.247c-0.434,1.752-0.977,3.224-1.542,4.441c1.468-0.198,3.011-0.49,4.253-0.923
	c3.642-1.27,4.929-1.843,4.94-1.848c0.918-0.413,1.995-0.234,2.73,0.45c0.736,0.686,0.992,1.744,0.646,2.688
	c-0.251,0.685-2.578,6.772-7.009,9.658c-0.056,0.036-0.111,0.072-0.168,0.108c1.038,1.237,1.936,2.507,2.683,3.797
	c1.143,1.764,1.876,3.286,2.783,5.237c0,0,0,0,0,0c7.62,16.388,1.421,33.589,0.106,36.862v24.04h1.624
	c11.568,0,20.979,9.411,20.979,20.979v9.606c0,11.568-9.411,20.979-20.979,20.979h-1.624v0.988
	C177.239,188.042,146.722,218.56,109.211,218.56z M46.184,147.044v3.488c0,34.753,28.274,63.027,63.027,63.027
	s63.027-28.274,63.027-63.027v-21.191h-4.429c-0.668,0-1.309-0.267-1.777-0.742c-0.47-0.475-0.73-1.118-0.723-1.786
	c0.004-0.29,0.303-29.081-1.926-37.996c-2.039-8.159-7.934-11.366-7.993-11.397c-0.604-0.321-1.051-0.875-1.236-1.533
	c-0.185-0.659-0.092-1.364,0.257-1.952c0.033-0.055,3.432-5.876,3.582-11.458c0.023-0.883-3.678-3.056-8.53-4.401
	c-5.306-1.104-9.35-1.03-9.453-1.032c-0.021,0-0.042,0.001-0.063,0.001h-52c-7.521,0-14.02-1.292-19.314-3.842
	c-0.885-0.426-1.737-0.908-2.554-1.439c-2.334,2.7-5.656,7.304-5.647,10.775c0.014,5.562,3.521,11.301,3.557,11.358
	c0.363,0.588,0.467,1.301,0.286,1.969c-0.182,0.667-0.631,1.23-1.242,1.554c-0.23,0.126-5.979,3.342-7.993,11.398
	c-2.229,8.915-1.93,37.706-1.926,37.996c0.008,0.668-0.253,1.311-0.723,1.786c-0.469,0.475-1.109,0.742-1.777,0.742h-4.429V147.044z
	 M177.375,144.544h1.487c8.812,0,15.979-7.168,15.979-15.979v-9.606c0-8.811-7.168-15.979-15.979-15.979h-1.487V144.544z
	 M39.697,102.98c-8.812,0-15.979,7.168-15.979,15.979v9.606c0,8.811,7.168,15.979,15.979,15.979h1.487V102.98H39.697z
	 M170.326,124.341h1.913V74.076c-2.177-4.749-5.54-8.176-9.286-10.647c-0.299,4.374-1.991,8.562-3.147,10.971
	c2.526,1.973,6.664,6.137,8.431,13.204C170.234,95.6,170.349,116.942,170.326,124.341z M46.184,124.341h1.913
	c-0.023-7.398,0.092-28.741,2.09-36.737c1.762-7.043,5.878-11.204,8.405-13.185c-1.272-2.577-3.149-7.171-3.161-11.869
	c-0.013-5.307,4.219-11.005,6.778-13.963c-1.924-1.964-3.501-4.273-4.648-6.826c-7.177,6.391-11.377,15.623-11.377,25.301V124.341z
	 M140.392,51.96c3.392,0,23.563,0.639,33.743,15.312c0.354-1.348,0.71-2.915,1.002-4.647c-2.934-2.858-13.531-12.211-29.298-15.208
	c-11.023-2.095-24.042-1.284-36.633-0.499c-9.361,0.583-19.043,1.188-27.616,0.536c-8.314-0.631-14.076-2.801-18.019-5.227
	c1.809,2.758,4.322,5.016,7.344,6.451c4.592,2.182,10.318,3.288,17.021,3.288h52C140,51.963,140.155,51.96,140.392,51.96z
	 M129.098,41.082c6.125,0,12.095,0.361,17.675,1.422c13.856,2.634,23.881,9.605,29.016,13.95c0.081-2.007,0.035-4.12-0.199-6.286
	c-1.408-1.181-11.237-9.284-19.929-12.864c-9.168-3.776-23.859-2.615-24.008-2.603c-0.845,0.065-1.648-0.285-2.168-0.942
	s-0.675-1.531-0.414-2.327l0.616-1.883l-14.492,4.546c-0.887,0.278-1.853,0.042-2.511-0.612c-0.658-0.655-0.899-1.621-0.627-2.508
	l1.533-4.985c-7.727,5.057-21.357,12.578-32.578,11.373c-10.919-1.174-16.746-6.219-19.538-9.727
	c-0.673,1.316-1.043,2.699-1.043,4.019c0,0.235,0.004,0.47,0.013,0.704c0.813,1.573,5.431,8.886,21.525,10.109
	c8.229,0.624,17.312,0.06,26.926-0.541C115.611,41.508,122.446,41.082,129.098,41.082z M137.102,29.517
	c5.573,0,14.025,0.513,20.463,3.165c5.934,2.444,12.147,6.662,16.354,9.802c-0.374-1.104-0.812-2.204-1.319-3.297
	c-0.856-1.84-1.491-3.159-2.478-4.675c-0.024-0.038-0.049-0.077-0.071-0.117c-1.024-1.781-2.425-3.54-4.162-5.227
	c-0.594-0.577-0.864-1.41-0.722-2.225c0.144-0.815,0.681-1.507,1.435-1.848c0.937-0.422,1.778-0.876,2.504-1.349
	c0.656-0.428,1.271-1.008,1.829-1.659c-4.093,1.105-9.3,1.218-9.541,1.222c-0.017,0-0.032,0-0.048,0
	c-1.035,0-1.966-0.639-2.336-1.609c-0.376-0.985-0.093-2.1,0.706-2.787l0,0c-0.001,0,2.085-1.954,3.246-6.646
	c0.121-0.488,0.203-0.969,0.254-1.438c-1.932,1.905-5.458,4.273-11.403,4.976c-4.791,0.566-10.94,0.216-18.28-1.038
	c-10.106-1.971-21.249-2.68-32.279-2.062c-8.397,0.471-15.979,1.848-23.176,4.208c-0.031,0.01-0.066,0.021-0.098,0.03v0
	c-4.911,1.511-7.891,3.299-9.867,4.485c-0.48,0.288-0.907,0.543-1.289,0.756l-2.084,1.487c1.732,2.538,6.432,7.603,16.809,8.719
	c14.319,1.548,34.837-14.483,35.042-14.644c0.861-0.678,2.061-0.717,2.961-0.099c0.902,0.618,1.298,1.751,0.977,2.797l-2.294,7.457
	l14.594-4.577c0.893-0.282,1.868-0.038,2.526,0.628s0.889,1.645,0.598,2.535l-1,3.054C135.603,29.526,136.325,29.517,137.102,29.517
	z M109.28,198.562c-16.96,0-30.758-11.495-30.758-25.625s13.798-25.625,30.758-25.625s30.758,11.495,30.758,25.625
	S126.24,198.562,109.28,198.562z M109.28,152.312c-14.203,0-25.758,9.252-25.758,20.625s11.555,20.625,25.758,20.625
	s25.758-9.252,25.758-20.625S123.483,152.312,109.28,152.312z M84.857,133.404c-9.348,0-16.953-7.605-16.953-16.954
	s7.605-16.954,16.953-16.954s16.953,7.605,16.953,16.954S94.205,133.404,84.857,133.404z M84.857,104.497
	c-6.591,0-11.953,5.362-11.953,11.954s5.362,11.954,11.953,11.954s11.953-5.362,11.953-11.954S91.448,104.497,84.857,104.497z
	 M133.575,133.182c-9.226,0-16.731-7.506-16.731-16.731s7.506-16.731,16.731-16.731s16.731,7.506,16.731,16.731
	S142.8,133.182,133.575,133.182z M133.575,104.719c-6.469,0-11.731,5.263-11.731,11.731s5.263,11.731,11.731,11.731
	c6.469,0,11.731-5.263,11.731-11.731S140.043,104.719,133.575,104.719z M133.575,119.2c-1.381,0-2.5-1.119-2.5-2.5v-0.25
	c0-1.381,1.119-2.5,2.5-2.5s2.5,1.119,2.5,2.5v0.25C136.075,118.081,134.956,119.2,133.575,119.2z M84.857,119.2
	c-1.381,0-2.5-1.119-2.5-2.5v-0.25c0-1.381,1.119-2.5,2.5-2.5s2.5,1.119,2.5,2.5v0.25C87.357,118.081,86.238,119.2,84.857,119.2z
	 M141.434,78.906c-0.296,0-0.596-0.053-0.889-0.164l-15.719-5.977c-1.29-0.491-1.938-1.935-1.448-3.226
	c0.491-1.291,1.935-1.936,3.226-1.448l15.719,5.977c1.29,0.491,1.938,1.935,1.448,3.226
	C143.391,78.292,142.442,78.906,141.434,78.906z M76.998,78.906c-1.008,0-1.957-0.614-2.337-1.612
	c-0.49-1.291,0.158-2.735,1.448-3.226l15.719-5.977c1.291-0.487,2.734,0.158,3.226,1.448c0.49,1.291-0.158,2.735-1.448,3.226
	l-15.719,5.977C77.593,78.853,77.293,78.906,76.998,78.906z"/>
<g>
</g>
<g>
</g>
<g>
</g>
<g>
</g>
<g>
</g>
<g>
</g>
<g>
</g>
<g>
</g>
<g>
</g>
<g>
</g>
<g>
</g>
<g>
</g>
<g>
</g>
<g>
</g>
<g>
</g>
</svg>
